<svg 
 xmlns="http://www.w3.org/2000/svg"
 xmlns:xlink="http://www.w3.org/1999/xlink"
 width="195px" height="29px">
<path fill-rule="evenodd"  fill="rgb(255, 255, 255)"
 d="M192.170,28.764 C190.487,28.764 189.378,27.563 189.378,26.322 L189.378,26.283 C187.963,27.873 186.12,28.920 183.182,28.920 C179.320,28.920 176.146,26.671 176.146,22.562 L176.146,22.484 C176.146,17.948 179.549,15.855 184.406,15.855 C186.471,15.855 187.963,16.204 189.416,16.708 L189.416,16.359 C189.416,13.917 187.924,12.560 185.18,12.560 C183.412,12.560 182.112,12.792 181.2,13.142 C180.658,13.257 180.429,13.296 180.161,13.296 C178.823,13.296 177.752,12.249 177.752,10.892 C177.752,9.846 178.402,8.954 179.320,8.605 C181.156,7.907 183.144,7.520 185.859,7.520 C189.34,7.520 191.328,8.373 192.782,9.846 C194.311,11.397 194.999,13.684 194.999,16.475 L194.999,25.935 C194.999,27.523 193.737,28.764 192.170,28.764 ZM189.492,20.158 C188.498,19.693 187.198,19.383 185.783,19.383 C183.297,19.383 181.768,20.390 181.768,22.252 L181.768,22.329 C181.768,23.918 183.67,24.849 184.942,24.849 C187.657,24.849 189.492,23.337 189.492,21.205 L189.492,20.158 ZM164.979,23.918 C166.509,23.918 167.694,23.376 168.803,22.484 C169.109,22.252 169.683,21.941 170.371,21.941 C171.748,21.941 172.819,23.66 172.819,24.461 C172.819,25.236 172.475,25.857 171.977,26.322 C170.256,27.912 168.76,28.997 164.711,28.997 C158.554,28.997 154.41,24.190 154.41,18.259 L154.41,18.181 C154.41,12.249 158.516,7.365 164.787,7.365 C167.885,7.365 170.65,8.218 171.786,9.691 C172.168,10.1 172.704,10.699 172.704,11.707 C172.704,13.180 171.518,14.343 170.65,14.343 C169.300,14.343 168.727,14.33 168.382,13.761 C167.350,12.947 166.279,12.443 164.749,12.443 C161.843,12.443 159.778,15.41 159.778,18.104 L159.778,18.181 C159.778,21.360 161.805,23.918 164.979,23.918 ZM149.261,28.764 C147.349,28.764 145.934,27.330 145.934,25.469 L145.934,25.392 C145.934,23.531 147.349,22.97 149.261,22.97 C151.173,22.97 152.588,23.531 152.588,25.392 L152.588,25.469 C152.588,27.330 151.173,28.764 149.261,28.764 ZM143.104,20.313 L143.104,25.818 C143.104,27.446 141.804,28.764 140.197,28.764 C138.591,28.764 137.291,27.446 137.291,25.818 L137.291,10.466 C137.291,8.838 138.591,7.520 140.197,7.520 C141.804,7.520 143.104,8.838 143.104,10.466 L143.104,11.397 C143.945,9.380 145.322,7.520 147.43,7.520 C148.840,7.520 149.873,8.722 149.873,10.388 C149.873,11.940 148.878,12.870 147.693,13.142 C144.748,13.839 143.104,16.126 143.104,20.313 ZM131.287,20.197 L119.776,20.197 C120.350,22.871 122.186,24.267 124.786,24.267 C126.392,24.267 127.731,23.764 128.916,22.871 C129.337,22.562 129.719,22.407 130.331,22.407 C131.632,22.407 132.588,23.415 132.588,24.733 C132.588,25.508 132.244,26.90 131.823,26.477 C130.25,28.27 127.692,28.997 124.710,28.997 C118.552,28.997 114.2,24.616 114.2,18.259 L114.2,18.181 C114.2,12.249 118.170,7.365 124.136,7.365 C130.981,7.365 134.3,13.64 134.3,17.367 C134.3,19.72 132.817,20.197 131.287,20.197 ZM124.136,12.94 C121.727,12.94 120.159,13.839 119.700,16.514 L128.458,16.514 C128.113,13.878 126.583,12.94 124.136,12.94 ZM107.769,28.764 C106.162,28.764 104.862,27.446 104.862,25.818 L104.862,2.945 C104.862,1.317 106.162,0.0 107.769,0.0 C109.374,0.0 110.675,1.317 110.675,2.945 L110.675,25.818 C110.675,27.446 109.374,28.764 107.769,28.764 ZM98.705,28.764 C97.22,28.764 95.913,27.563 95.913,26.322 L95.913,26.283 C94.498,27.873 92.548,28.920 89.718,28.920 C85.856,28.920 82.681,26.671 82.681,22.562 L82.681,22.484 C82.681,17.948 86.85,15.855 90.942,15.855 C93.7,15.855 94.498,16.204 95.952,16.708 L95.952,16.359 C95.952,13.917 94.460,12.560 91.554,12.560 C89.948,12.560 88.647,12.792 87.538,13.142 C87.194,13.257 86.964,13.296 86.697,13.296 C85.358,13.296 84.287,12.249 84.287,10.892 C84.287,9.846 84.938,8.954 85.856,8.605 C87.691,7.907 89.680,7.520 92.395,7.520 C95.569,7.520 97.864,8.373 99.317,9.846 C100.847,11.397 101.535,13.684 101.535,16.475 L101.535,25.935 C101.535,27.523 100.273,28.764 98.705,28.764 ZM96.28,20.158 C95.34,19.693 93.734,19.383 92.319,19.383 C89.833,19.383 88.303,20.390 88.303,22.252 L88.303,22.329 C88.303,23.918 89.603,24.849 91.477,24.849 C94.192,24.849 96.28,23.337 96.28,21.205 L96.28,20.158 ZM77.596,20.197 L66.85,20.197 C66.658,22.871 68.494,24.267 71.95,24.267 C72.701,24.267 74.39,23.764 75.225,22.871 C75.646,22.562 76.28,22.407 76.640,22.407 C77.940,22.407 78.896,23.415 78.896,24.733 C78.896,25.508 78.552,26.90 78.131,26.477 C76.334,28.27 74.1,28.997 71.18,28.997 C64.861,28.997 60.310,24.616 60.310,18.259 L60.310,18.181 C60.310,12.249 64.479,7.365 70.445,7.365 C77.290,7.365 80.311,13.64 80.311,17.367 C80.311,19.72 79.126,20.197 77.596,20.197 ZM70.445,12.94 C68.35,12.94 66.467,13.839 66.8,16.514 L74.766,16.514 C74.422,13.878 72.892,12.94 70.445,12.94 ZM42.757,28.532 L35.261,28.532 C33.617,28.532 32.317,27.214 32.317,25.547 L32.317,4.379 C32.317,2.712 33.617,1.394 35.261,1.394 L42.757,1.394 C51.170,1.394 56.983,7.248 56.983,14.886 L56.983,14.963 C56.983,22.601 51.170,28.532 42.757,28.532 ZM50.826,14.963 C50.826,10.156 47.575,6.783 42.757,6.783 L38.206,6.783 L38.206,23.143 L42.757,23.143 C47.575,23.143 50.826,19.848 50.826,15.41 L50.826,14.963 ZM25.55,8.295 L2.868,8.295 C1.284,8.295 0.0,6.993 0.0,5.386 C0.0,3.781 1.284,2.478 2.868,2.478 L25.55,2.478 C26.639,2.478 27.924,3.781 27.924,5.386 C27.924,6.993 26.639,8.295 25.55,8.295 ZM2.868,11.978 L12.49,11.978 C13.633,11.978 14.918,13.281 14.918,14.887 C14.918,16.493 13.633,17.796 12.49,17.796 L2.868,17.796 C1.284,17.796 0.0,16.493 0.0,14.887 C0.0,13.281 1.284,11.978 2.868,11.978 ZM2.868,21.479 L18.934,21.479 C20.519,21.479 21.803,22.781 21.803,24.387 C21.803,25.994 20.519,27.295 18.934,27.295 L2.868,27.295 C1.284,27.295 0.0,25.994 0.0,24.387 C0.0,22.781 1.284,21.479 2.868,21.479 Z"/>
</svg>